<mxfile host="65bd71144e">
    <diagram id="8unvSzZc5b7AhLQEv18w" name="第 1 页">
        <mxGraphModel dx="2093" dy="1139" grid="1" gridSize="10" guides="1" tooltips="1" connect="1" arrows="1" fold="1" page="1" pageScale="1" pageWidth="827" pageHeight="1169" math="0" shadow="0">
            <root>
                <mxCell id="0"/>
                <mxCell id="1" parent="0"/>
                <mxCell id="132" value="" style="group" vertex="1" connectable="0" parent="1">
                    <mxGeometry x="280" y="170" width="894" height="400" as="geometry"/>
                </mxCell>
                <mxCell id="99" value="" style="pointerEvents=1;verticalLabelPosition=bottom;shadow=0;dashed=0;align=center;html=1;verticalAlign=top;shape=mxgraph.electrical.waveforms.pulse_2;container=0;" vertex="1" parent="132">
                    <mxGeometry x="51.550295857988175" width="51.550295857988175" height="39.130434782608695" as="geometry"/>
                </mxCell>
                <mxCell id="100" value="" style="pointerEvents=1;verticalLabelPosition=bottom;shadow=0;dashed=0;align=center;html=1;verticalAlign=top;shape=mxgraph.electrical.waveforms.pulse_2;container=0;" vertex="1" parent="132">
                    <mxGeometry x="103.10059171597635" width="51.550295857988175" height="39.130434782608695" as="geometry"/>
                </mxCell>
                <mxCell id="101" value="" style="pointerEvents=1;verticalLabelPosition=bottom;shadow=0;dashed=0;align=center;html=1;verticalAlign=top;shape=mxgraph.electrical.waveforms.pulse_2;container=0;" vertex="1" parent="132">
                    <mxGeometry x="257.75147928994085" width="51.550295857988175" height="39.130434782608695" as="geometry"/>
                </mxCell>
                <mxCell id="102" value="" style="pointerEvents=1;verticalLabelPosition=bottom;shadow=0;dashed=0;align=center;html=1;verticalAlign=top;shape=mxgraph.electrical.waveforms.pulse_2;container=0;" vertex="1" parent="132">
                    <mxGeometry x="4.58224852071006" y="46.95652173913044" width="116.27455621301772" height="39.130434782608695" as="geometry"/>
                </mxCell>
                <mxCell id="103" value="" style="pointerEvents=1;verticalLabelPosition=bottom;shadow=0;dashed=0;align=center;html=1;verticalAlign=top;shape=mxgraph.electrical.waveforms.pulse_2;container=0;" vertex="1" parent="132">
                    <mxGeometry x="309.301775147929" width="51.550295857988175" height="39.130434782608695" as="geometry"/>
                </mxCell>
                <mxCell id="104" value="" style="pointerEvents=1;verticalLabelPosition=bottom;shadow=0;dashed=0;align=center;html=1;verticalAlign=top;shape=mxgraph.electrical.waveforms.pulse_2;container=0;" vertex="1" parent="132">
                    <mxGeometry x="408.9656804733728" width="51.550295857988175" height="39.130434782608695" as="geometry"/>
                </mxCell>
                <mxCell id="105" value="" style="pointerEvents=1;verticalLabelPosition=bottom;shadow=0;dashed=0;align=center;html=1;verticalAlign=top;shape=mxgraph.electrical.waveforms.pulse_2;container=0;" vertex="1" parent="132">
                    <mxGeometry x="206.2011834319527" width="51.550295857988175" height="39.130434782608695" as="geometry"/>
                </mxCell>
                <mxCell id="106" value="" style="pointerEvents=1;verticalLabelPosition=bottom;shadow=0;dashed=0;align=center;html=1;verticalAlign=top;shape=mxgraph.electrical.waveforms.pulse_2;container=0;" vertex="1" parent="132">
                    <mxGeometry x="360.8520710059171" width="51.550295857988175" height="39.130434782608695" as="geometry"/>
                </mxCell>
                <mxCell id="107" value="" style="pointerEvents=1;verticalLabelPosition=bottom;shadow=0;dashed=0;align=center;html=1;verticalAlign=top;shape=mxgraph.electrical.waveforms.pulse_2;container=0;" vertex="1" parent="132">
                    <mxGeometry width="51.550295857988175" height="39.130434782608695" as="geometry"/>
                </mxCell>
                <mxCell id="108" value="" style="pointerEvents=1;verticalLabelPosition=bottom;shadow=0;dashed=0;align=center;html=1;verticalAlign=top;shape=mxgraph.electrical.waveforms.pulse_2;container=0;" vertex="1" parent="132">
                    <mxGeometry x="154.6508875739645" width="51.550295857988175" height="39.130434782608695" as="geometry"/>
                </mxCell>
                <mxCell id="109" value="" style="pointerEvents=1;verticalLabelPosition=bottom;shadow=0;dashed=0;align=center;html=1;verticalAlign=top;shape=mxgraph.electrical.waveforms.pulse_2;container=0;" vertex="1" parent="132">
                    <mxGeometry x="108.25562130177514" y="136.52173913043475" width="116.27455621301772" height="39.130434782608695" as="geometry"/>
                </mxCell>
                <mxCell id="110" value="" style="pointerEvents=1;verticalLabelPosition=bottom;shadow=0;dashed=0;align=center;html=1;verticalAlign=top;shape=mxgraph.electrical.waveforms.pulse_2;container=0;" vertex="1" parent="132">
                    <mxGeometry x="368.01" y="360.87" width="107.99" height="39.13" as="geometry"/>
                </mxCell>
                <mxCell id="111" value="" style="pointerEvents=1;verticalLabelPosition=bottom;shadow=0;dashed=0;align=center;html=1;verticalAlign=top;shape=mxgraph.electrical.waveforms.pulse_2;container=0;" vertex="1" parent="132">
                    <mxGeometry x="159.8059171597633" y="181.30434782608694" width="116.27455621301772" height="39.130434782608695" as="geometry"/>
                </mxCell>
                <mxCell id="112" value="" style="pointerEvents=1;verticalLabelPosition=bottom;shadow=0;dashed=0;align=center;html=1;verticalAlign=top;shape=mxgraph.electrical.waveforms.pulse_2;container=0;" vertex="1" parent="132">
                    <mxGeometry x="56.13254437869824" y="91.7391304347826" width="116.27455621301772" height="39.130434782608695" as="geometry"/>
                </mxCell>
                <mxCell id="113" value="" style="pointerEvents=1;verticalLabelPosition=bottom;shadow=0;dashed=0;align=center;html=1;verticalAlign=top;shape=mxgraph.electrical.waveforms.pulse_2;container=0;" vertex="1" parent="132">
                    <mxGeometry x="211.35621301775151" y="226.52173913043475" width="116.27455621301772" height="39.130434782608695" as="geometry"/>
                </mxCell>
                <mxCell id="114" value="" style="pointerEvents=1;verticalLabelPosition=bottom;shadow=0;dashed=0;align=center;html=1;verticalAlign=top;shape=mxgraph.electrical.waveforms.pulse_2;container=0;" vertex="1" parent="132">
                    <mxGeometry x="314.4568047337278" y="316.0869565217391" width="116.27455621301772" height="39.130434782608695" as="geometry"/>
                </mxCell>
                <mxCell id="115" value="" style="pointerEvents=1;verticalLabelPosition=bottom;shadow=0;dashed=0;align=center;html=1;verticalAlign=top;shape=mxgraph.electrical.waveforms.pulse_2;container=0;" vertex="1" parent="132">
                    <mxGeometry x="262.90650887573963" y="271.30434782608694" width="116.27455621301772" height="39.130434782608695" as="geometry"/>
                </mxCell>
                <mxCell id="116" value="" style="endArrow=none;html=1;exitX=0.789;exitY=0;exitDx=0;exitDy=0;exitPerimeter=0;" edge="1" parent="132" source="104">
                    <mxGeometry width="50" height="50" relative="1" as="geometry">
                        <mxPoint x="282.95384615384614" y="230.43478260869563" as="sourcePoint"/>
                        <mxPoint x="477.6994082840238" as="targetPoint"/>
                    </mxGeometry>
                </mxCell>
                <mxCell id="117" value="" style="endArrow=none;html=1;entryX=0.719;entryY=0.022;entryDx=0;entryDy=0;entryPerimeter=0;" edge="1" parent="132">
                    <mxGeometry width="50" height="50" relative="1" as="geometry">
                        <mxPoint x="444" y="47" as="sourcePoint"/>
                        <mxPoint x="88.18365443786975" y="46.947826086956525" as="targetPoint"/>
                    </mxGeometry>
                </mxCell>
                <mxCell id="118" value="" style="endArrow=none;html=1;entryX=0.719;entryY=0.022;entryDx=0;entryDy=0;entryPerimeter=0;" edge="1" parent="132">
                    <mxGeometry width="50" height="50" relative="1" as="geometry">
                        <mxPoint x="483.42721893491114" y="91.7391304347826" as="sourcePoint"/>
                        <mxPoint x="168.3959147928993" y="91.7391304347826" as="targetPoint"/>
                    </mxGeometry>
                </mxCell>
                <mxCell id="119" value="" style="endArrow=none;html=1;entryX=0.719;entryY=0.022;entryDx=0;entryDy=0;entryPerimeter=0;" edge="1" parent="132">
                    <mxGeometry width="50" height="50" relative="1" as="geometry">
                        <mxPoint x="483.42721893491114" y="136.52173913043475" as="sourcePoint"/>
                        <mxPoint x="202.7627786982247" y="136.52173913043475" as="targetPoint"/>
                    </mxGeometry>
                </mxCell>
                <mxCell id="120" value="" style="endArrow=none;html=1;" edge="1" parent="132">
                    <mxGeometry width="50" height="50" relative="1" as="geometry">
                        <mxPoint x="484" y="181.30434782608694" as="sourcePoint"/>
                        <mxPoint x="243.43195266272187" y="181.30434782608694" as="targetPoint"/>
                    </mxGeometry>
                </mxCell>
                <mxCell id="121" value="" style="endArrow=none;html=1;" edge="1" parent="132">
                    <mxGeometry width="50" height="50" relative="1" as="geometry">
                        <mxPoint x="481.1360946745562" y="226.52173913043475" as="sourcePoint"/>
                        <mxPoint x="303.5739644970414" y="226.52173913043475" as="targetPoint"/>
                    </mxGeometry>
                </mxCell>
                <mxCell id="122" value="" style="endArrow=none;html=1;" edge="1" parent="132">
                    <mxGeometry width="50" height="50" relative="1" as="geometry">
                        <mxPoint x="483.42721893491114" y="271.30434782608694" as="sourcePoint"/>
                        <mxPoint x="351.687573964497" y="271.30434782608694" as="targetPoint"/>
                    </mxGeometry>
                </mxCell>
                <mxCell id="123" value="" style="endArrow=none;html=1;" edge="1" parent="132">
                    <mxGeometry width="50" height="50" relative="1" as="geometry">
                        <mxPoint x="483.42721893491114" y="316.0869565217391" as="sourcePoint"/>
                        <mxPoint x="408.9656804733728" y="316.0869565217391" as="targetPoint"/>
                    </mxGeometry>
                </mxCell>
                <mxCell id="124" value="" style="endArrow=none;html=1;" edge="1" parent="132">
                    <mxGeometry width="50" height="50" relative="1" as="geometry">
                        <mxPoint x="74.46153846153845" y="91.7391304347826" as="sourcePoint"/>
                        <mxPoint y="91.7391304347826" as="targetPoint"/>
                    </mxGeometry>
                </mxCell>
                <mxCell id="125" value="" style="endArrow=none;html=1;" edge="1" parent="132">
                    <mxGeometry width="50" height="50" relative="1" as="geometry">
                        <mxPoint x="108.25562130177514" y="136.52173913043475" as="sourcePoint"/>
                        <mxPoint x="2.29112426035503" y="136.52173913043475" as="targetPoint"/>
                    </mxGeometry>
                </mxCell>
                <mxCell id="126" value="" style="endArrow=none;html=1;" edge="1" parent="132">
                    <mxGeometry width="50" height="50" relative="1" as="geometry">
                        <mxPoint x="167.25207100591714" y="181.30434782608694" as="sourcePoint"/>
                        <mxPoint x="2.29112426035503" y="181.30434782608694" as="targetPoint"/>
                    </mxGeometry>
                </mxCell>
                <mxCell id="127" value="" style="endArrow=none;html=1;" edge="1" parent="132">
                    <mxGeometry width="50" height="50" relative="1" as="geometry">
                        <mxPoint x="216.51124260355027" y="226.52173913043475" as="sourcePoint"/>
                        <mxPoint x="2.29112426035503" y="226.52173913043475" as="targetPoint"/>
                    </mxGeometry>
                </mxCell>
                <mxCell id="128" value="" style="endArrow=none;html=1;" edge="1" parent="132">
                    <mxGeometry width="50" height="50" relative="1" as="geometry">
                        <mxPoint x="262.90650887573963" y="271.30434782608694" as="sourcePoint"/>
                        <mxPoint x="2.29112426035503" y="271.30434782608694" as="targetPoint"/>
                    </mxGeometry>
                </mxCell>
                <mxCell id="129" value="" style="endArrow=none;html=1;" edge="1" parent="132">
                    <mxGeometry width="50" height="50" relative="1" as="geometry">
                        <mxPoint x="314.4568047337278" y="316.0869565217391" as="sourcePoint"/>
                        <mxPoint x="2.29112426035503" y="316.0869565217391" as="targetPoint"/>
                    </mxGeometry>
                </mxCell>
                <mxCell id="130" value="" style="endArrow=none;html=1;" edge="1" parent="132">
                    <mxGeometry width="50" height="50" relative="1" as="geometry">
                        <mxPoint x="368.298224852071" y="360.8695652173913" as="sourcePoint"/>
                        <mxPoint x="2.29112426035503" y="360.8695652173913" as="targetPoint"/>
                    </mxGeometry>
                </mxCell>
                <mxCell id="54" value="" style="pointerEvents=1;verticalLabelPosition=bottom;shadow=0;dashed=0;align=center;html=1;verticalAlign=top;shape=mxgraph.electrical.waveforms.pulse_2;container=0;" vertex="1" parent="132">
                    <mxGeometry x="461.5502958579882" width="51.550295857988175" height="39.130434782608695" as="geometry"/>
                </mxCell>
                <mxCell id="56" value="" style="pointerEvents=1;verticalLabelPosition=bottom;shadow=0;dashed=0;align=center;html=1;verticalAlign=top;shape=mxgraph.electrical.waveforms.pulse_2;container=0;" vertex="1" parent="132">
                    <mxGeometry x="513.1005917159764" width="51.550295857988175" height="39.130434782608695" as="geometry"/>
                </mxCell>
                <mxCell id="58" value="" style="pointerEvents=1;verticalLabelPosition=bottom;shadow=0;dashed=0;align=center;html=1;verticalAlign=top;shape=mxgraph.electrical.waveforms.pulse_2;container=0;" vertex="1" parent="132">
                    <mxGeometry x="667.7514792899408" width="51.550295857988175" height="39.130434782608695" as="geometry"/>
                </mxCell>
                <mxCell id="59" value="" style="pointerEvents=1;verticalLabelPosition=bottom;shadow=0;dashed=0;align=center;html=1;verticalAlign=top;shape=mxgraph.electrical.waveforms.pulse_2;container=0;" vertex="1" parent="132">
                    <mxGeometry x="414.58224852071004" y="46.95652173913044" width="116.27455621301772" height="39.130434782608695" as="geometry"/>
                </mxCell>
                <mxCell id="60" value="" style="pointerEvents=1;verticalLabelPosition=bottom;shadow=0;dashed=0;align=center;html=1;verticalAlign=top;shape=mxgraph.electrical.waveforms.pulse_2;container=0;" vertex="1" parent="132">
                    <mxGeometry x="719.301775147929" width="51.550295857988175" height="39.130434782608695" as="geometry"/>
                </mxCell>
                <mxCell id="61" value="" style="pointerEvents=1;verticalLabelPosition=bottom;shadow=0;dashed=0;align=center;html=1;verticalAlign=top;shape=mxgraph.electrical.waveforms.pulse_2;container=0;" vertex="1" parent="132">
                    <mxGeometry x="818.9656804733728" width="51.550295857988175" height="39.130434782608695" as="geometry"/>
                </mxCell>
                <mxCell id="62" value="" style="pointerEvents=1;verticalLabelPosition=bottom;shadow=0;dashed=0;align=center;html=1;verticalAlign=top;shape=mxgraph.electrical.waveforms.pulse_2;container=0;" vertex="1" parent="132">
                    <mxGeometry x="616.2011834319527" width="51.550295857988175" height="39.130434782608695" as="geometry"/>
                </mxCell>
                <mxCell id="63" value="" style="pointerEvents=1;verticalLabelPosition=bottom;shadow=0;dashed=0;align=center;html=1;verticalAlign=top;shape=mxgraph.electrical.waveforms.pulse_2;container=0;" vertex="1" parent="132">
                    <mxGeometry x="770.8520710059171" width="51.550295857988175" height="39.130434782608695" as="geometry"/>
                </mxCell>
                <mxCell id="64" value="" style="pointerEvents=1;verticalLabelPosition=bottom;shadow=0;dashed=0;align=center;html=1;verticalAlign=top;shape=mxgraph.electrical.waveforms.pulse_2;container=0;" vertex="1" parent="132">
                    <mxGeometry x="410" width="51.550295857988175" height="39.130434782608695" as="geometry"/>
                </mxCell>
                <mxCell id="65" value="" style="pointerEvents=1;verticalLabelPosition=bottom;shadow=0;dashed=0;align=center;html=1;verticalAlign=top;shape=mxgraph.electrical.waveforms.pulse_2;container=0;" vertex="1" parent="132">
                    <mxGeometry x="564.6508875739645" width="51.550295857988175" height="39.130434782608695" as="geometry"/>
                </mxCell>
                <mxCell id="66" value="" style="pointerEvents=1;verticalLabelPosition=bottom;shadow=0;dashed=0;align=center;html=1;verticalAlign=top;shape=mxgraph.electrical.waveforms.pulse_2;container=0;" vertex="1" parent="132">
                    <mxGeometry x="518.2556213017751" y="136.52173913043475" width="116.27455621301772" height="39.130434782608695" as="geometry"/>
                </mxCell>
                <mxCell id="69" value="" style="pointerEvents=1;verticalLabelPosition=bottom;shadow=0;dashed=0;align=center;html=1;verticalAlign=top;shape=mxgraph.electrical.waveforms.pulse_2;container=0;" vertex="1" parent="132">
                    <mxGeometry x="776.0071005917159" y="360.8695652173913" width="116.27455621301772" height="39.130434782608695" as="geometry"/>
                </mxCell>
                <mxCell id="70" value="" style="pointerEvents=1;verticalLabelPosition=bottom;shadow=0;dashed=0;align=center;html=1;verticalAlign=top;shape=mxgraph.electrical.waveforms.pulse_2;container=0;" vertex="1" parent="132">
                    <mxGeometry x="569.8059171597633" y="181.30434782608694" width="116.27455621301772" height="39.130434782608695" as="geometry"/>
                </mxCell>
                <mxCell id="71" value="" style="pointerEvents=1;verticalLabelPosition=bottom;shadow=0;dashed=0;align=center;html=1;verticalAlign=top;shape=mxgraph.electrical.waveforms.pulse_2;container=0;" vertex="1" parent="132">
                    <mxGeometry x="466.13254437869824" y="91.7391304347826" width="116.27455621301772" height="39.130434782608695" as="geometry"/>
                </mxCell>
                <mxCell id="72" value="" style="pointerEvents=1;verticalLabelPosition=bottom;shadow=0;dashed=0;align=center;html=1;verticalAlign=top;shape=mxgraph.electrical.waveforms.pulse_2;container=0;" vertex="1" parent="132">
                    <mxGeometry x="621.3562130177515" y="226.52173913043475" width="116.27455621301772" height="39.130434782608695" as="geometry"/>
                </mxCell>
                <mxCell id="73" value="" style="pointerEvents=1;verticalLabelPosition=bottom;shadow=0;dashed=0;align=center;html=1;verticalAlign=top;shape=mxgraph.electrical.waveforms.pulse_2;container=0;" vertex="1" parent="132">
                    <mxGeometry x="724.4568047337277" y="316.0869565217391" width="116.27455621301772" height="39.130434782608695" as="geometry"/>
                </mxCell>
                <mxCell id="75" value="" style="pointerEvents=1;verticalLabelPosition=bottom;shadow=0;dashed=0;align=center;html=1;verticalAlign=top;shape=mxgraph.electrical.waveforms.pulse_2;container=0;" vertex="1" parent="132">
                    <mxGeometry x="672.9065088757396" y="271.30434782608694" width="116.27455621301772" height="39.130434782608695" as="geometry"/>
                </mxCell>
                <mxCell id="78" value="" style="endArrow=none;html=1;exitX=0.789;exitY=0;exitDx=0;exitDy=0;exitPerimeter=0;" edge="1" parent="132" source="61">
                    <mxGeometry width="50" height="50" relative="1" as="geometry">
                        <mxPoint x="692.9538461538461" y="230.43478260869563" as="sourcePoint"/>
                        <mxPoint x="887.6994082840238" as="targetPoint"/>
                    </mxGeometry>
                </mxCell>
                <mxCell id="79" value="" style="endArrow=none;html=1;entryX=0.719;entryY=0.022;entryDx=0;entryDy=0;entryPerimeter=0;" edge="1" parent="132">
                    <mxGeometry width="50" height="50" relative="1" as="geometry">
                        <mxPoint x="893.4272189349111" y="46.95652173913044" as="sourcePoint"/>
                        <mxPoint x="498.1836544378698" y="46.947826086956525" as="targetPoint"/>
                    </mxGeometry>
                </mxCell>
                <mxCell id="81" value="" style="endArrow=none;html=1;entryX=0.719;entryY=0.022;entryDx=0;entryDy=0;entryPerimeter=0;" edge="1" parent="132">
                    <mxGeometry width="50" height="50" relative="1" as="geometry">
                        <mxPoint x="893.4272189349111" y="91.7391304347826" as="sourcePoint"/>
                        <mxPoint x="578.3959147928992" y="91.7391304347826" as="targetPoint"/>
                    </mxGeometry>
                </mxCell>
                <mxCell id="82" value="" style="endArrow=none;html=1;entryX=0.719;entryY=0.022;entryDx=0;entryDy=0;entryPerimeter=0;" edge="1" parent="132">
                    <mxGeometry width="50" height="50" relative="1" as="geometry">
                        <mxPoint x="893.4272189349111" y="136.52173913043475" as="sourcePoint"/>
                        <mxPoint x="612.7627786982247" y="136.52173913043475" as="targetPoint"/>
                    </mxGeometry>
                </mxCell>
                <mxCell id="83" value="" style="endArrow=none;html=1;" edge="1" parent="132">
                    <mxGeometry width="50" height="50" relative="1" as="geometry">
                        <mxPoint x="894" y="181.30434782608694" as="sourcePoint"/>
                        <mxPoint x="653.4319526627219" y="181.30434782608694" as="targetPoint"/>
                    </mxGeometry>
                </mxCell>
                <mxCell id="84" value="" style="endArrow=none;html=1;" edge="1" parent="132">
                    <mxGeometry width="50" height="50" relative="1" as="geometry">
                        <mxPoint x="891.1360946745563" y="226.52173913043475" as="sourcePoint"/>
                        <mxPoint x="713.5739644970414" y="226.52173913043475" as="targetPoint"/>
                    </mxGeometry>
                </mxCell>
                <mxCell id="85" value="" style="endArrow=none;html=1;" edge="1" parent="132">
                    <mxGeometry width="50" height="50" relative="1" as="geometry">
                        <mxPoint x="893.4272189349111" y="271.30434782608694" as="sourcePoint"/>
                        <mxPoint x="761.687573964497" y="271.30434782608694" as="targetPoint"/>
                    </mxGeometry>
                </mxCell>
                <mxCell id="86" value="" style="endArrow=none;html=1;" edge="1" parent="132">
                    <mxGeometry width="50" height="50" relative="1" as="geometry">
                        <mxPoint x="893.4272189349111" y="316.0869565217391" as="sourcePoint"/>
                        <mxPoint x="818.9656804733728" y="316.0869565217391" as="targetPoint"/>
                    </mxGeometry>
                </mxCell>
                <mxCell id="89" value="" style="endArrow=none;html=1;" edge="1" parent="132">
                    <mxGeometry width="50" height="50" relative="1" as="geometry">
                        <mxPoint x="484.46153846153845" y="91.7391304347826" as="sourcePoint"/>
                        <mxPoint x="410" y="91.7391304347826" as="targetPoint"/>
                    </mxGeometry>
                </mxCell>
                <mxCell id="90" value="" style="endArrow=none;html=1;" edge="1" parent="132">
                    <mxGeometry width="50" height="50" relative="1" as="geometry">
                        <mxPoint x="518.2556213017751" y="136.52173913043475" as="sourcePoint"/>
                        <mxPoint x="412.29112426035505" y="136.52173913043475" as="targetPoint"/>
                    </mxGeometry>
                </mxCell>
                <mxCell id="91" value="" style="endArrow=none;html=1;" edge="1" parent="132">
                    <mxGeometry width="50" height="50" relative="1" as="geometry">
                        <mxPoint x="577.2520710059172" y="181.30434782608694" as="sourcePoint"/>
                        <mxPoint x="412.29112426035505" y="181.30434782608694" as="targetPoint"/>
                    </mxGeometry>
                </mxCell>
                <mxCell id="92" value="" style="endArrow=none;html=1;" edge="1" parent="132">
                    <mxGeometry width="50" height="50" relative="1" as="geometry">
                        <mxPoint x="626.5112426035503" y="226.52173913043475" as="sourcePoint"/>
                        <mxPoint x="412.29112426035505" y="226.52173913043475" as="targetPoint"/>
                    </mxGeometry>
                </mxCell>
                <mxCell id="93" value="" style="endArrow=none;html=1;" edge="1" parent="132">
                    <mxGeometry width="50" height="50" relative="1" as="geometry">
                        <mxPoint x="672.9065088757396" y="271.30434782608694" as="sourcePoint"/>
                        <mxPoint x="412.29112426035505" y="271.30434782608694" as="targetPoint"/>
                    </mxGeometry>
                </mxCell>
                <mxCell id="94" value="" style="endArrow=none;html=1;" edge="1" parent="132">
                    <mxGeometry width="50" height="50" relative="1" as="geometry">
                        <mxPoint x="724.4568047337277" y="316.0869565217391" as="sourcePoint"/>
                        <mxPoint x="412.29112426035505" y="316.0869565217391" as="targetPoint"/>
                    </mxGeometry>
                </mxCell>
                <mxCell id="95" value="" style="endArrow=none;html=1;" edge="1" parent="132">
                    <mxGeometry width="50" height="50" relative="1" as="geometry">
                        <mxPoint x="778.2982248520709" y="360.8695652173913" as="sourcePoint"/>
                        <mxPoint x="454" y="361" as="targetPoint"/>
                    </mxGeometry>
                </mxCell>
            </root>
        </mxGraphModel>
    </diagram>
</mxfile>